<svg xmlns="http://www.w3.org/2000/svg" viewBox="0 0 476.46 313.5"><defs><style>.cls-1{fill:#007e33;}.cls-2{fill:#31a531;}</style></defs><g id="Layer_2" data-name="Layer 2"><g id="Layer_9" data-name="Layer 9"><path class="cls-1" d="M245.25,101.08c-8.63-2.92-17.46-3.34-26.4-3-2.37.09-3.07-.6-3-3,.18-4.85.21-9.71,0-14.56-.12-2.63.71-3.86,3.16-5a23.22,23.22,0,0,0-16-43.34c-9.33,2.38-16.42,10.36-17.31,19.49-1,10.67,3.86,19.71,13.25,24,2,.92,2.91,1.86,2.81,4.22-.23,5.07-.21,10.16,0,15.24.1,2.52-.87,2.91-3.1,2.89-11.18-.1-22.36-.16-33.54,0-2.83.05-3.24-.92-3.22-3.41q.15-22.86,0-45.73c0-2.42.51-3.65,2.91-4.75A22.75,22.75,0,0,0,177.8,20C176.11,9.38,168.46,1.73,158,.27a18,18,0,0,0-6.25,0c-10.22,1.14-18.17,8.9-20,19.55C130,29.7,135.59,40.06,145.2,44.4c1.92.87,2.61,1.78,2.6,3.93q-.17,23.39,0,46.76c0,2.38-.68,2.88-3,3-26.46,1.94-47.35,20.4-52.36,46.42-.55,2.87-1.63,3.26-4.13,3.24q-19.48-.16-39,0c-2.65,0-4.09-.58-5.34-3.22a23,23,0,0,0-29.84-11.18A23.39,23.39,0,0,0,1.44,163,23.13,23.13,0,0,0,21.69,178c10.11.47,18.56-4.42,22.67-13.4.93-2,1.88-2.81,4.2-2.78,13.43.13,26.87.09,40.31,0,2.08,0,3,.27,3.5,2.75,3.07,16.62,11.8,29.55,26.12,38.58,9.93,6.26,20.89,8.75,32.55,8.57,6.24-.09,6.24,0,6.24,6.34,0,16.94,0,33.88,0,50.82,0,16.15,12.15,28.27,28.23,28.35,10.05.05,20.1.06,30.16,0,2.24,0,3.56.39,4.56,2.76,2.58,6.13,7.34,10.11,13.63,12.33a31.84,31.84,0,0,0,6.62,1.16h2.94a18.43,18.43,0,0,0,3.67-.7A23.32,23.32,0,0,0,264,285.1c-2.47-10.23-10.35-17-21.06-18.11-9.25-.95-18.64,4.65-22.83,13.75-.74,1.6-1.44,2.42-3.41,2.39-10.5-.13-21,0-31.51-.09a13.36,13.36,0,0,1-13.59-13.52c-.14-18.52,0-37-.1-55.56,0-1.82.55-2.29,2.3-2.24,4.17.11,8.35.05,12.53,0,5.2,0,8.37-2.81,8.33-7.24s-3-7-8.16-7c-12.76,0-25.52.13-38.28,0a42.19,42.19,0,0,1-31.48-14.11C107.94,174,105,162.52,106,150.14c1.75-20.59,19.93-37.57,40.64-37.82,27.32-.34,54.66-.44,82,0,25.82.43,45.32,25.59,40,50.71-4.26,20.14-20.41,33.63-41.26,34.47-4.62.19-7.79,3.18-7.67,7.24s3.38,7.05,8,7a59.27,59.27,0,0,0,8.09-.69c25-4,45.26-25.43,47.59-49.58C286.26,131.49,267.46,108.58,245.25,101.08Zm-222,62.78A9,9,0,1,1,32.33,155,8.9,8.9,0,0,1,23.21,163.86ZM241.38,281.11a9.09,9.09,0,0,1,8.88,9.16,8.93,8.93,0,0,1-8.94,9,8.7,8.7,0,0,1-8.92-8.91A8.86,8.86,0,0,1,241.38,281.11ZM154.92,32.23a8.9,8.9,0,0,1-9.19-8.75,9.24,9.24,0,0,1,9.1-9.35,9.35,9.35,0,0,1,9.09,9.08A9,9,0,0,1,154.92,32.23Zm53.63,31.29a8.6,8.6,0,0,1-8.77-9.09,9,9,0,0,1,18,.47C217.68,60,213.87,63.58,208.55,63.52Z"/><path class="cls-1" d="M457.88,89.84c-12-2.2-23.27,4.41-26.86,15.78a23,23,0,0,0,12.59,28.18c2,.89,2.51,1.9,2.48,4-.13,9.93,0,19.87-.06,29.8,0,9-5.37,14.66-14.43,14.76-13.55.15-27.1,0-40.64.08-1.83,0-2.4-.55-2.73-2.4a56.16,56.16,0,0,0-20.94-35.22c-11.27-8.94-24.26-12.53-38.47-12.3l-6.2,0c-9.71,0-19.43,0-29.14.07-4.64,0-7.64,3-7.57,7.29s3,6.86,7.55,6.89c5.88.05,11.75-.08,17.62,0,9,.18,18.08-.7,27.07.53a42.59,42.59,0,0,1,36.63,44.75c-1.1,21.53-19.44,39.66-41.19,39.92-27.1.34-54.21.4-81.31,0-26.37-.39-45.85-25.63-40.26-51.34,4.26-19.63,20.6-33.1,41.08-33.86,4.63-.17,7.81-3.13,7.72-7.2s-3.34-7.05-7.95-7c-2.25,0-4.5.33-6.74.56-30.85,3.2-54.39,35-48.54,65.52,5.52,28.81,28.27,47.63,57.59,47.65,14,0,28,.07,42-.07,2.81,0,4,.4,3.78,3.6a142.4,142.4,0,0,0,0,14.9c.09,2.36-.67,3.46-2.87,4.46-9,4.08-14.06,13-13.37,23.05.63,9.08,7.16,17.17,16.2,20.18a27.36,27.36,0,0,0,5.14,1h2.31a21.86,21.86,0,0,0,4.3-.49c10.9-2.86,17.34-10.17,18.51-21,1-9.46-4.44-18.47-14.26-23.15a2.82,2.82,0,0,1-1.83-3.09c.06-5.65.1-11.29,0-16.93,0-1.86.42-2.56,2.4-2.5,4.51.14,9,0,13.55,0,28.81,0,51.82-19,57.16-47.27.45-2.36,1.38-2.58,3.28-2.57q20,.08,40,0c16.9-.06,28.74-11.83,28.84-28.7.06-9.82.11-19.64-.05-29.46,0-2.47.61-3.65,2.92-4.75,8.07-3.86,12.64-10.47,13.27-19.38A23.08,23.08,0,0,0,457.88,89.84ZM317.05,290.28a9.19,9.19,0,0,1-9.42,9,9,9,0,0,1,.42-18A9.13,9.13,0,0,1,317.05,290.28ZM453.13,121.69a9.2,9.2,0,0,1-9.06-9,9.36,9.36,0,0,1,9.37-9.14,9.22,9.22,0,0,1,8.81,9.29A9,9,0,0,1,453.13,121.69Z"/><path class="cls-2" d="M425.28,31.81c-5.72.52-11.46,1-17.14,1.83-16.85,2.47-33.05,7-47.6,16.18C341.26,62,329.27,79,326.6,102c-.32.34-.17,1.5-1.15.65a11,11,0,0,1-.95-4.58c-.45-17-7.1-31-20.51-41.6-15.23-12-33.3-15.65-52.7-17.4C263.07,49.18,268.06,62.62,273.23,76a74.47,74.47,0,0,0,5.37,10.9c9.43,15.94,20.24,21.19,38.58,18.72.87-.12,1.76-.47,2.21.79,3,8.49,7.8,16.75,3.23,26.17l6.2,0c1.14-3.68,3.34-6.85,4.92-10.31,1.3-2.83,3-3.09,5.78-2.43,18.53,4.35,34-.81,46.39-15.3,8-9.38,13.19-20.34,18-31.55,6.64-15.49,14.26-30.35,28.18-41.14C429.67,31.78,427.46,31.62,425.28,31.81Zm-91.63,76.81C337,94.79,341.66,81.68,353,72a98.93,98.93,0,0,1,33.81-18.64C363.66,66.62,345.87,84.87,333.65,108.62Z"/></g></g></svg>