<svg xmlns="http://www.w3.org/2000/svg" viewBox="0 0 748.67 133.48"><defs><style>.cls-1{fill:#fff;}.cls-2{fill:#007f33;}.cls-3{fill:#32a431;}</style></defs><g id="Layer_2" data-name="Layer 2"><g id="Layer_1-2" data-name="Layer 1"><path class="cls-1" d="M261.54,62.07V76.43H275.9v8.29s-2,3.06-12,3.06-19-7-19-20.39,10.89-18.88,18.89-18.88,16,6.67,16,6.67l11.82-13.61s-9-10.49-28.15-10.49-38.25,13.54-38.25,36.51,16.87,36.72,38.38,36.72S294,93.75,294,93.75L294,62.07Z"/><path class="cls-1" d="M343.14,32.59H324.3l-29.5,70.28h20.36l4.61-12.8h27.16l5.3,12.8h21.14Zm-17.32,43,7.89-20.34,7.94,20.34Z"/><polygon class="cls-1" points="435.37 102.89 373.39 102.89 373.39 88.53 408.15 49.24 374.19 49.24 374.19 32.56 435.37 32.56 435.37 46.93 399.86 86.99 435.37 86.99 435.37 102.89"/><polygon class="cls-1" points="499.63 102.89 437.65 102.89 437.65 88.53 472.41 49.24 438.45 49.24 438.45 32.56 499.63 32.56 499.63 46.93 464.12 86.99 499.63 86.99 499.63 102.89"/><rect class="cls-1" x="505.67" y="32.56" width="18.87" height="70.32"/><polygon class="cls-1" points="540 32.6 540 102.89 580.04 102.89 580.04 96.09 546.79 96.09 546.79 32.6 540 32.6"/><path class="cls-1" d="M616.32,32.6h-7.56l-26.45,70.29h7.55l6.81-18.14h31l7.57,18.15h7.56ZM599,78l13.22-35.54L625.4,78Z"/><path class="cls-1" d="M684.3,67a17.42,17.42,0,0,0,11.46-16.83c0-13.25-13.85-17.57-18.63-17.57H650.38v70.29h29.44s18.86-1.34,18.86-19C698.68,69.29,684.3,67,684.3,67ZM657.15,39.41h18.09s12.85.5,12.85,12.25-13.93,12.55-13.93,12.55h-17Zm18.12,57.41-18.12,0V70.48h18.09s15.94.39,15.94,13.35S675.27,96.82,675.27,96.82Z"/><path class="cls-1" d="M707,88.54l-4.49,5.31s6.37,9.79,24,9.79,22.16-12,22.16-18.92-3.45-14.14-15.14-18.85-21.31-7-21.31-16.33,10.62-11.29,13.68-11.29,13.74,2.65,16.66,7.1l4.78-5.64s-7-8.17-21-8.17-21.24,9-21.24,18.39a18.57,18.57,0,0,0,11,17.2c5.11,2.39,12.68,5.38,12.68,5.38S741,76.09,741,85.05,732.8,97.6,726.43,97.6,709.53,92.09,707,88.54Z"/><path class="cls-2" d="M104.42,43a31.25,31.25,0,0,0-11.24-1.3c-1,0-1.31-.25-1.27-1.27.08-2.06.1-4.13,0-6.2a1.91,1.91,0,0,1,1.35-2.13,9.9,9.9,0,1,0-8.55.09A1.64,1.64,0,0,1,85.91,34c-.1,2.16-.09,4.33,0,6.49,0,1.08-.37,1.24-1.32,1.23-4.76,0-9.52-.06-14.28,0-1.2,0-1.38-.4-1.37-1.45q.07-9.75,0-19.48a1.82,1.82,0,0,1,1.24-2A9.68,9.68,0,0,0,75.7,8.53,9.76,9.76,0,0,0,67.28.11a7.92,7.92,0,0,0-2.66,0,9.86,9.86,0,0,0-2.8,18.79,1.54,1.54,0,0,1,1.11,1.67q-.07,9.95,0,19.91c0,1-.29,1.22-1.26,1.29A24.12,24.12,0,0,0,39.38,61.54c-.24,1.23-.7,1.39-1.76,1.38-5.53,0-11.06-.05-16.59,0a2.08,2.08,0,0,1-2.28-1.37,9.81,9.81,0,0,0-12.7-4.76A10,10,0,0,0,.62,69.38,9.86,9.86,0,0,0,9.24,75.8a9.68,9.68,0,0,0,9.65-5.71,1.64,1.64,0,0,1,1.78-1.18c5.73,0,11.45,0,17.17,0,.88,0,1.29.11,1.49,1.17A23.76,23.76,0,0,0,50.45,86.52a24.74,24.74,0,0,0,13.86,3.65c2.66,0,2.66,0,2.66,2.69,0,7.22,0,14.43,0,21.64a11.82,11.82,0,0,0,12,12.07c4.28,0,8.56,0,12.84,0a1.72,1.72,0,0,1,2,1.18,9.29,9.29,0,0,0,5.8,5.24,12.81,12.81,0,0,0,2.82.5h1.25a7.44,7.44,0,0,0,1.56-.3,9.92,9.92,0,1,0-11.52-13.65,1.37,1.37,0,0,1-1.45,1c-4.47,0-8.94,0-13.41,0A5.69,5.69,0,0,1,73,114.75C73,106.87,73,99,73,91.1c0-.78.23-1,1-1,1.77,0,3.55,0,5.33,0,2.22,0,3.57-1.2,3.55-3.08s-1.29-3-3.47-3c-5.44,0-10.87,0-16.3,0a17.94,17.94,0,0,1-13.41-6,17.75,17.75,0,0,1-4.55-14.16,18,18,0,0,1,17.31-16.1c11.63-.14,23.27-.18,34.9,0,11,.18,19.3,10.9,17,21.59A18.14,18.14,0,0,1,96.81,84.1c-2,.08-3.32,1.35-3.27,3.08a3.09,3.09,0,0,0,3.4,3,25,25,0,0,0,3.45-.3C111,88.16,119.66,79,120.65,68.74A24.38,24.38,0,0,0,104.42,43ZM9.88,69.77A3.84,3.84,0,1,1,13.77,66,3.81,3.81,0,0,1,9.88,69.77Zm92.89,49.92a3.86,3.86,0,0,1,3.78,3.9,3.81,3.81,0,0,1-3.8,3.84,3.71,3.71,0,0,1-3.8-3.8A3.77,3.77,0,0,1,102.77,119.69ZM66,13.72A3.78,3.78,0,0,1,62.05,10a3.93,3.93,0,0,1,3.87-4,4,4,0,0,1,3.87,3.86A3.84,3.84,0,0,1,66,13.72ZM88.79,27.05a3.67,3.67,0,0,1-3.73-3.87,3.84,3.84,0,1,1,7.67.19A3.68,3.68,0,0,1,88.79,27.05Z"/><path class="cls-2" d="M195,38.25A9.9,9.9,0,0,0,188.88,57a1.54,1.54,0,0,1,1.05,1.7c-.05,4.23,0,8.46,0,12.69,0,3.84-2.29,6.24-6.15,6.28-5.76.07-11.53,0-17.3,0-.78,0-1-.23-1.16-1a23.91,23.91,0,0,0-8.92-15A24.79,24.79,0,0,0,140,56.42h-2.64c-4.13,0-8.27,0-12.4,0a3,3,0,0,0-3.23,3.1A2.94,2.94,0,0,0,125,62.5c2.5,0,5,0,7.5,0,3.84.08,7.7-.3,11.52.23A18.11,18.11,0,0,1,142,98.79c-11.53.14-23.08.17-34.62,0-11.22-.17-19.52-10.92-17.14-21.87a18.15,18.15,0,0,1,17.49-14.41c2-.08,3.33-1.34,3.29-3.07a3.08,3.08,0,0,0-3.39-3c-1,0-1.91.13-2.87.23C91.66,58.07,81.64,71.6,84.13,84.6c2.35,12.27,12,20.28,24.52,20.29,6,0,11.92,0,17.89,0,1.19,0,1.69.17,1.6,1.53a60.94,60.94,0,0,0,0,6.34,1.7,1.7,0,0,1-1.22,1.9,9.75,9.75,0,0,0-5.69,9.82,10,10,0,0,0,6.89,8.59,11.48,11.48,0,0,0,2.19.44h1a9.77,9.77,0,0,0,1.83-.21c4.64-1.22,7.38-4.33,7.88-9,.44-4-1.89-7.86-6.07-9.85a1.2,1.2,0,0,1-.78-1.32c0-2.4,0-4.81,0-7.21,0-.79.18-1.09,1-1.06,1.92.06,3.84,0,5.76,0a24.18,24.18,0,0,0,24.34-20.13c.19-1,.59-1.09,1.4-1.09q8.51,0,17,0c7.19,0,12.23-5,12.28-12.22,0-4.18,0-8.37,0-12.55a1.83,1.83,0,0,1,1.25-2,9.42,9.42,0,0,0,5.65-8.25A9.83,9.83,0,0,0,195,38.25Zm-60,85.34a3.9,3.9,0,0,1-4,3.83,3.84,3.84,0,0,1,.18-7.68A3.89,3.89,0,0,1,135,123.59Zm57.94-71.78A3.92,3.92,0,0,1,189.07,48a4,4,0,0,1,4-3.89,3.91,3.91,0,0,1,3.75,4A3.82,3.82,0,0,1,192.93,51.81Z"/><path class="cls-3" d="M181.07,13.55c-2.43.21-4.88.42-7.3.77-7.17,1-14.07,3-20.26,6.89-8.21,5.18-13.31,12.42-14.45,22.22-.14.14-.08.64-.49.28a4.64,4.64,0,0,1-.41-2A22.26,22.26,0,0,0,129.43,24c-6.49-5.1-14.18-6.66-22.44-7.4,5,4.3,7.14,10,9.34,15.7A32.24,32.24,0,0,0,118.62,37c4,6.79,8.62,9,16.43,8,.37-.05.75-.2.94.34,1.28,3.61,3.32,7.13,1.37,11.14H140A36.83,36.83,0,0,1,142.1,52c.55-1.21,1.26-1.32,2.46-1,7.89,1.85,14.48-.35,19.75-6.52,3.41-4,5.62-8.66,7.66-13.43,2.83-6.6,6.08-12.92,12-17.52C182.94,13.53,182,13.46,181.07,13.55Zm-39,32.7c1.44-5.89,3.41-11.47,8.22-15.58a42.19,42.19,0,0,1,14.4-7.94A56.24,56.24,0,0,0,142.06,46.25Z"/></g></g></svg>