<svg xmlns="http://www.w3.org/2000/svg" viewBox="0 0 675.47 122.74"><defs><style>.cls-1{fill:#4e4848;}.cls-2{fill:#007e33;}.cls-3{fill:#31a531;}</style></defs><g id="Layer_2" data-name="Layer 2"><g id="Layer_7" data-name="Layer 7"><path class="cls-1" d="M227.51,57.08V70.29h13.21v7.62s-1.86,2.81-11.05,2.81S212.21,74.25,212.21,62s10-17.37,17.37-17.37,14.68,6.13,14.68,6.13l10.87-12.51s-8.3-9.65-25.89-9.65S194.08,41,194.08,62.16s15.51,33.76,35.29,33.76,28-9.71,28-9.71l.07-29.13Z"/><path class="cls-1" d="M302.55,30H285.22L258.09,94.6h18.73l4.24-11.77h25l4.88,11.77h19.44ZM286.62,69.55l7.26-18.7,7.3,18.7Z"/><polygon class="cls-1" points="387.37 94.61 330.37 94.61 330.37 81.41 362.33 45.28 331.1 45.28 331.1 29.95 387.37 29.95 387.37 43.16 354.71 79.99 387.37 79.99 387.37 94.61"/><polygon class="cls-1" points="446.46 94.61 389.46 94.61 389.46 81.41 421.42 45.28 390.19 45.28 390.19 29.95 446.46 29.95 446.46 43.16 413.8 79.99 446.46 79.99 446.46 94.61"/><rect class="cls-1" x="452.01" y="29.95" width="17.35" height="64.67"/><polygon class="cls-1" points="483.58 29.98 483.58 94.61 520.4 94.61 520.4 88.37 489.83 88.37 489.83 29.98 483.58 29.98"/><path class="cls-1" d="M553.76,30h-6.94L522.49,94.61h6.94l6.26-16.68h28.49l7,16.68h7Zm-16,41.7L549.94,39l12.17,32.68Z"/><path class="cls-1" d="M616.28,61.61a16,16,0,0,0,10.53-15.48C626.81,34,614.08,30,609.69,30H585.08V94.61h27.08s17.34-1.22,17.34-17.43C629.5,63.72,616.28,61.61,616.28,61.61Zm-25-25.37H608s11.81.46,11.81,11.27S607,59,607,59H591.31ZM608,89H591.31V64.81H608s14.65.36,14.65,12.28S608,89,608,89Z"/><path class="cls-1" d="M637.15,81.42,633,86.3s5.86,9,22.09,9,20.37-11,20.37-17.4-3.17-13-13.92-17.34-19.6-6.41-19.6-15,9.77-10.38,12.58-10.38,12.64,2.45,15.32,6.54l4.4-5.19S667.78,29,655,29s-19.54,8.3-19.54,16.91a17.06,17.06,0,0,0,10.14,15.81c4.7,2.2,11.66,5,11.66,5S668.45,70,668.45,78.22,660.88,89.75,655,89.75,639.48,84.69,637.15,81.42Z"/><path class="cls-2" d="M96,39.57a28.71,28.71,0,0,0-10.33-1.18c-.93,0-1.2-.24-1.17-1.17.08-1.9.09-3.8,0-5.7a1.76,1.76,0,0,1,1.24-2,9.11,9.11,0,1,0-7.86.08A1.49,1.49,0,0,1,79,31.29c-.09,2-.08,4,0,6,0,1-.35,1.15-1.22,1.14-4.38,0-8.75-.07-13.13,0-1.11,0-1.27-.36-1.26-1.34q.06-8.94,0-17.9a1.67,1.67,0,0,1,1.14-1.86,8.92,8.92,0,0,0,5.08-9.46A9,9,0,0,0,61.87.1a7.2,7.2,0,0,0-2.45,0,9.07,9.07,0,0,0-2.57,17.28,1.41,1.41,0,0,1,1,1.53q-.07,9.16,0,18.31c0,.93-.27,1.13-1.16,1.19A22.18,22.18,0,0,0,36.21,56.6c-.22,1.12-.64,1.27-1.62,1.26q-7.62-.06-15.25,0a1.89,1.89,0,0,1-2.09-1.26A9,9,0,0,0,5.56,52.23a9.15,9.15,0,0,0-5,11.57,9,9,0,0,0,7.92,5.9,8.91,8.91,0,0,0,8.88-5.24A1.52,1.52,0,0,1,19,63.36c5.26.06,10.53,0,15.79,0,.81,0,1.19.1,1.37,1.07A21.89,21.89,0,0,0,46.39,79.56a22.69,22.69,0,0,0,12.75,3.36c2.44,0,2.44,0,2.44,2.48,0,6.63,0,13.26,0,19.9a10.87,10.87,0,0,0,11,11.1c3.94,0,7.87,0,11.81,0a1.6,1.6,0,0,1,1.79,1.09,8.56,8.56,0,0,0,5.33,4.82,12.59,12.59,0,0,0,2.6.45h1.15a7.16,7.16,0,0,0,1.43-.27,9.12,9.12,0,1,0-10.59-12.55c-.29.63-.56,1-1.34.94-4.11,0-8.22,0-12.33,0a5.22,5.22,0,0,1-5.32-5.29c-.06-7.25,0-14.51,0-21.76,0-.71.22-.89.9-.88,1.63,0,3.27,0,4.91,0,2,0,3.27-1.1,3.26-2.84S75,77.35,73,77.35c-5,0-10,0-15,0a16.57,16.57,0,0,1-12.32-5.52,16.33,16.33,0,0,1-4.19-13A16.51,16.51,0,0,1,57.41,44c10.7-.13,21.41-.17,32.1,0,10.11.17,17.75,10,15.67,19.86A16.7,16.7,0,0,1,89,77.34a2.79,2.79,0,1,0,.13,5.55,22.48,22.48,0,0,0,3.17-.27c9.78-1.55,17.72-10,18.63-19.41A22.42,22.42,0,0,0,96,39.57ZM9.09,64.16a3.53,3.53,0,1,1,3.57-3.46A3.51,3.51,0,0,1,9.09,64.16Zm85.42,45.9A3.57,3.57,0,0,1,98,113.65a3.51,3.51,0,0,1-3.51,3.53A3.41,3.41,0,0,1,91,113.69,3.48,3.48,0,0,1,94.51,110.06ZM60.66,12.62a3.49,3.49,0,0,1-3.6-3.43,3.62,3.62,0,0,1,3.56-3.66,3.66,3.66,0,0,1,3.56,3.56A3.54,3.54,0,0,1,60.66,12.62Zm21,12.25a3.37,3.37,0,0,1-3.43-3.56,3.53,3.53,0,0,1,7,.18A3.38,3.38,0,0,1,81.65,24.87Z"/><path class="cls-2" d="M179.28,35.17a9.11,9.11,0,0,0-10.52,6.19,9,9,0,0,0,4.93,11,1.41,1.41,0,0,1,1,1.56c0,3.89,0,7.78,0,11.67,0,3.53-2.11,5.74-5.65,5.78-5.31.06-10.61,0-15.92,0-.71,0-.94-.22-1.06-.94a22,22,0,0,0-8.2-13.79,22.83,22.83,0,0,0-15.07-4.82h-2.42c-3.81,0-7.61,0-11.41,0a2.74,2.74,0,0,0-3,2.85,2.69,2.69,0,0,0,3,2.7c2.3,0,4.6,0,6.9,0,3.53.08,7.08-.27,10.6.21a16.66,16.66,0,0,1-1.79,33.16c-10.61.13-21.22.15-31.83,0a16.69,16.69,0,0,1,.32-33.36A2.79,2.79,0,1,0,99,51.93c-.88,0-1.76.12-2.64.21-12.08,1.26-21.3,13.71-19,25.66,2.16,11.28,11.06,18.65,22.54,18.65,5.49,0,11,0,16.45,0,1.1,0,1.56.16,1.48,1.41a56.68,56.68,0,0,0,0,5.83,1.58,1.58,0,0,1-1.12,1.75,9,9,0,0,0-5.24,9,9.2,9.2,0,0,0,6.34,7.9,10.63,10.63,0,0,0,2,.4h.9a7.89,7.89,0,0,0,1.68-.19c4.27-1.12,6.79-4,7.25-8.23.4-3.71-1.74-7.24-5.58-9.07a1.11,1.11,0,0,1-.72-1.21c0-2.21,0-4.42,0-6.63,0-.72.16-1,.94-1,1.76,0,3.53,0,5.3,0A22.23,22.23,0,0,0,152,78c.18-.93.54-1,1.29-1q7.81,0,15.65,0c6.61,0,11.25-4.64,11.29-11.24,0-3.84,0-7.69,0-11.53a1.69,1.69,0,0,1,1.14-1.86,8.68,8.68,0,0,0,5.2-7.59A9.05,9.05,0,0,0,179.28,35.17Zm-55.14,78.49a3.61,3.61,0,0,1-3.69,3.52,3.54,3.54,0,0,1,.16-7.07A3.58,3.58,0,0,1,124.14,113.66Zm53.28-66a3.61,3.61,0,0,1-3.55-3.54,3.66,3.66,0,0,1,3.67-3.58A3.61,3.61,0,0,1,181,44.17,3.53,3.53,0,0,1,177.42,47.65Z"/><path class="cls-3" d="M166.51,12.46c-2.24.2-4.48.38-6.71.71-6.6,1-12.94,2.75-18.63,6.34-7.56,4.76-12.25,11.42-13.29,20.43-.13.13-.07.58-.46.25a4.55,4.55,0,0,1-.37-1.79,20.45,20.45,0,0,0-8-16.29c-6-4.7-13-6.13-20.63-6.81,4.61,4,6.56,9.22,8.59,14.44a28.65,28.65,0,0,0,2.1,4.27c3.69,6.24,7.92,8.29,15.11,7.32.34,0,.69-.18.86.31,1.19,3.33,3.06,6.56,1.27,10.25h2.42a35.6,35.6,0,0,1,1.93-4c.51-1.1,1.16-1.2,2.26-1,7.26,1.71,13.32-.31,18.17-6,3.13-3.67,5.16-8,7.05-12.35,2.59-6.06,5.58-11.88,11-16.11C168.23,12.44,167.37,12.38,166.51,12.46ZM130.64,42.53C132,37.11,133.77,32,138.2,28.2a38.71,38.71,0,0,1,13.24-7.3A51.76,51.76,0,0,0,130.64,42.53Z"/></g></g></svg>