<svg xmlns="http://www.w3.org/2000/svg" viewBox="0 0 689.29 313.5"><defs><style>.cls-1{fill:#4e4848;}.cls-2{fill:#007e33;}.cls-3{fill:#31a531;}</style></defs><g id="Layer_2" data-name="Layer 2"><g id="Layer_9" data-name="Layer 9"><path class="cls-1" d="M32.53,269.54v12.85H45.38v7.41s-1.81,2.74-10.75,2.74-17-6.3-17-18.24,9.75-16.9,16.9-16.9,14.29,6,14.29,6l10.58-12.18s-8.08-9.39-25.19-9.39S0,253.92,0,274.48s15.09,32.85,34.34,32.85,27.2-9.45,27.2-9.45l.07-28.34Z"/><path class="cls-1" d="M105.55,243.15H88.69L62.29,306H80.51l4.12-11.45h24.31L113.68,306h18.91ZM90,281.67l7.07-18.2,7.1,18.2Z"/><polygon class="cls-1" points="188.08 306.06 132.62 306.06 132.62 293.21 163.72 258.06 133.33 258.06 133.33 243.13 188.08 243.13 188.08 255.99 156.3 291.83 188.08 291.83 188.08 306.06"/><polygon class="cls-1" points="245.57 306.06 190.11 306.06 190.11 293.21 221.21 258.06 190.82 258.06 190.82 243.13 245.57 243.13 245.57 255.99 213.79 291.83 245.57 291.83 245.57 306.06"/><rect class="cls-1" x="250.98" y="243.13" width="16.89" height="62.92"/><polygon class="cls-1" points="502.57 243.16 502.57 306.06 538.4 306.06 538.4 299.98 508.65 299.98 508.65 243.16 502.57 243.16"/><path class="cls-1" d="M570.86,243.16H564.1l-23.67,62.9h6.76l6.09-16.23H581l6.77,16.24h6.77Zm-15.54,40.58,11.82-31.8L579,283.74Z"/><path class="cls-1" d="M631.69,273.94a15.58,15.58,0,0,0,10.25-15.06c0-11.85-12.39-15.72-16.66-15.72H601.34v62.9h26.34s16.87-1.2,16.87-17C644.55,276,631.69,273.94,631.69,273.94ZM607.4,249.26h16.18s11.5.44,11.5,11-12.46,11.23-12.46,11.23H607.4Zm16.21,51.37H607.4V277.06h16.18s14.26.35,14.26,11.94S623.61,300.63,623.61,300.63Z"/><path class="cls-1" d="M652,293.22,648,298s5.7,8.76,21.49,8.76S689.29,296,689.29,289.8s-3.09-12.65-13.55-16.87-19.07-6.24-19.07-14.61,9.51-10.1,12.24-10.1,12.3,2.37,14.91,6.36l4.28-5.05s-6.3-7.31-18.77-7.31-19,8.08-19,16.45a16.6,16.6,0,0,0,9.86,15.39c4.57,2.14,11.34,4.81,11.34,4.81s10.94,3.21,10.94,11.23-7.37,11.23-13.07,11.23S654.27,296.4,652,293.22Z"/><path class="cls-2" d="M377.49,101.08c-8.63-2.92-17.46-3.34-26.4-3-2.38.09-3.07-.6-3-3,.19-4.85.22-9.71,0-14.56-.13-2.63.71-3.86,3.16-5a23.22,23.22,0,0,0-16-43.34c-9.33,2.38-16.42,10.36-17.31,19.49-1,10.67,3.86,19.71,13.25,24,2,.92,2.91,1.86,2.81,4.22-.23,5.07-.22,10.16,0,15.24.1,2.52-.87,2.91-3.1,2.89-11.18-.1-22.37-.16-33.54,0-2.83.05-3.24-.92-3.22-3.41q.15-22.86,0-45.73c0-2.42.52-3.65,2.92-4.75A22.75,22.75,0,0,0,310,20C308.35,9.38,300.7,1.73,290.25.27a18,18,0,0,0-6.25,0c-10.22,1.14-18.17,8.9-20,19.55-1.73,9.87,3.86,20.23,13.47,24.57,1.92.87,2.61,1.78,2.6,3.93q-.17,23.39,0,46.76c0,2.38-.68,2.88-3,3-26.47,1.94-47.36,20.4-52.36,46.42-.55,2.87-1.64,3.26-4.13,3.24q-19.49-.16-39,0c-2.65,0-4.1-.58-5.34-3.22a23,23,0,0,0-29.84-11.18A23.39,23.39,0,0,0,133.68,163,23.11,23.11,0,0,0,153.93,178c10.11.47,18.56-4.42,22.67-13.4.92-2,1.88-2.81,4.2-2.78,13.43.13,26.87.09,40.31,0,2.07,0,3,.27,3.5,2.75,3.07,16.62,11.8,29.55,26.12,38.58,9.92,6.26,20.88,8.75,32.55,8.57,6.24-.09,6.24,0,6.24,6.34,0,16.94,0,33.88,0,50.82.06,16.15,12.16,28.27,28.24,28.35,10.05.05,20.1.06,30.15,0,2.24,0,3.57.39,4.57,2.76,2.58,6.13,7.34,10.11,13.63,12.33a31.84,31.84,0,0,0,6.62,1.16h2.94a18.18,18.18,0,0,0,3.66-.7,23.32,23.32,0,0,0,16.85-27.7c-2.47-10.23-10.36-17-21.06-18.11-9.25-.95-18.64,4.65-22.83,13.75-.74,1.6-1.44,2.42-3.42,2.39-10.5-.13-21,0-31.5-.09a13.36,13.36,0,0,1-13.59-13.52c-.14-18.52,0-37-.1-55.56,0-1.82.55-2.29,2.3-2.24,4.17.11,8.35.05,12.53,0,5.2,0,8.37-2.81,8.33-7.24s-3-7-8.16-7c-12.76,0-25.52.13-38.28,0a42.19,42.19,0,0,1-31.48-14.11c-8.75-9.42-11.74-20.87-10.69-33.25,1.75-20.59,19.92-37.57,40.64-37.82,27.32-.34,54.66-.44,82,0,25.82.43,45.32,25.59,40,50.71-4.26,20.14-20.41,33.63-41.26,34.47-4.62.19-7.79,3.18-7.67,7.24s3.38,7.05,8,7A59.27,59.27,0,0,0,368,211c25-4,45.26-25.43,47.59-49.58C418.5,131.49,399.69,108.58,377.49,101.08Zm-222,62.78a9,9,0,1,1,9.12-8.83A8.95,8.95,0,0,1,155.45,163.86ZM373.62,281.11a9.09,9.09,0,0,1,8.88,9.16,8.94,8.94,0,0,1-8.95,9,8.7,8.7,0,0,1-8.91-8.91A8.86,8.86,0,0,1,373.62,281.11ZM287.16,32.23A8.9,8.9,0,0,1,278,23.48a9.24,9.24,0,0,1,9.1-9.35,9.36,9.36,0,0,1,9.09,9.08A9,9,0,0,1,287.16,32.23Zm53.63,31.29A8.6,8.6,0,0,1,332,54.43a9,9,0,0,1,18,.47C349.92,60,346.1,63.58,340.79,63.52Z"/><path class="cls-2" d="M590.12,89.84c-12-2.2-23.28,4.41-26.86,15.78a23,23,0,0,0,12.59,28.18c2,.89,2.5,1.9,2.48,4-.13,9.93,0,19.87-.06,29.8,0,9-5.37,14.66-14.43,14.76-13.55.15-27.1,0-40.64.08-1.83,0-2.4-.55-2.73-2.4a56.16,56.16,0,0,0-20.94-35.22c-11.27-8.94-24.26-12.53-38.47-12.3l-6.2,0c-9.72,0-19.43,0-29.14.07-4.64,0-7.64,3-7.57,7.29s3,6.86,7.55,6.89c5.87.05,11.75-.08,17.62,0,9,.18,18.08-.7,27.07.53A42.58,42.58,0,0,1,507,192.1c-1.09,21.53-19.43,39.66-41.18,39.92-27.1.34-54.21.4-81.31,0-26.37-.39-45.86-25.63-40.27-51.34,4.27-19.63,20.61-33.1,41.09-33.86,4.63-.17,7.81-3.13,7.72-7.2s-3.34-7.05-7.95-7c-2.25,0-4.5.33-6.74.56-30.85,3.2-54.39,35-48.54,65.52,5.52,28.81,28.26,47.63,57.59,47.65,14,0,28,.07,42-.07,2.81,0,4,.4,3.78,3.6a142.4,142.4,0,0,0,0,14.9c.08,2.36-.67,3.46-2.87,4.46-9,4.08-14.06,13-13.37,23.05.63,9.08,7.16,17.17,16.2,20.18a27.2,27.2,0,0,0,5.14,1h2.31a21.86,21.86,0,0,0,4.3-.49c10.9-2.86,17.34-10.17,18.51-21,1-9.46-4.45-18.47-14.27-23.15a2.81,2.81,0,0,1-1.82-3.09c.06-5.65.09-11.29,0-16.93,0-1.86.42-2.56,2.4-2.5,4.51.14,9,0,13.54,0,28.82,0,51.83-19,57.17-47.27.45-2.36,1.38-2.58,3.28-2.57q20,.08,40,0c16.9-.06,28.74-11.83,28.84-28.7.06-9.82.11-19.64-.06-29.46,0-2.47.62-3.65,2.93-4.75,8.07-3.86,12.64-10.47,13.27-19.38A23.08,23.08,0,0,0,590.12,89.84ZM449.29,290.28a9.2,9.2,0,0,1-9.42,9,9,9,0,0,1,.42-18A9.13,9.13,0,0,1,449.29,290.28ZM585.37,121.69a9.2,9.2,0,0,1-9.06-9,9.36,9.36,0,0,1,9.37-9.14,9.22,9.22,0,0,1,8.81,9.29A9,9,0,0,1,585.37,121.69Z"/><path class="cls-3" d="M557.52,31.81c-5.72.52-11.46,1-17.15,1.83-16.84,2.47-33,7-47.59,16.18C473.49,62,461.51,79,458.84,102c-.32.34-.17,1.5-1.15.65a11,11,0,0,1-.95-4.58c-.46-17-7.1-31-20.51-41.6-15.23-12-33.31-15.65-52.7-17.4C395.3,49.18,400.29,62.62,405.47,76a74.47,74.47,0,0,0,5.37,10.9c9.43,15.94,20.23,21.19,38.58,18.72.87-.12,1.76-.47,2.21.79,3,8.49,7.8,16.75,3.23,26.17l6.2,0c1.13-3.68,3.33-6.85,4.92-10.31,1.3-2.83,3-3.09,5.78-2.43,18.53,4.35,34-.81,46.38-15.3,8-9.38,13.2-20.34,18-31.55,6.64-15.49,14.26-30.35,28.18-41.14C561.91,31.78,559.7,31.62,557.52,31.81Zm-91.63,76.81c3.39-13.83,8-26.94,19.32-36.6A98.93,98.93,0,0,1,519,53.38C495.9,66.62,478.1,84.87,465.89,108.62Z"/></g></g></svg>